<svg version="1.1" xmlns="http://www.w3.org/2000/svg" style="display: block;" viewBox="0 0 2048 1365" width="1536" height="1024" preserveAspectRatio="none">
<defs>
	<linearGradient id="Gradient1" gradientUnits="userSpaceOnUse" x1="464.936" y1="659.002" x2="1216.85" y2="664.337">
		<stop class="stop0" offset="0" stop-opacity="1" stop-color="rgb(107,223,205)"/>
		<stop class="stop1" offset="1" stop-opacity="1" stop-color="rgb(74,117,255)"/>
	</linearGradient>
</defs>
<path transform="translate(0,0)" fill="url(#Gradient1)" d="M 1196.93 518.389 C 1187.61 526.145 1172.67 538.981 1165.16 548.366 C 1145.42 573.053 1127.81 602.678 1111.09 629.575 L 1027.1 766.992 C 1007.48 799.408 993.056 827.167 966.416 854.535 C 855.257 968.731 657.966 971.553 544.257 859.686 C 438.736 755.874 434.829 568.071 541.557 463.786 C 656.729 349.387 828.524 354.984 942.564 467.823 C 954.006 460.963 969.033 451.632 980.77 445.967 C 981.506 460.66 981.018 478.799 981.081 493.899 C 981.131 522.698 981.437 551.497 981.998 580.29 C 935.04 574.875 886.774 572.793 839.682 567.319 C 844.843 559.675 862.535 542.903 869.83 535.702 C 852.482 520.412 832.602 508.265 811.081 499.806 C 769.433 483.749 717.97 482.74 676.95 500.969 C 635.57 519.437 603.111 553.434 586.574 595.622 C 569.955 639.513 571.328 688.189 590.395 731.073 C 609.051 772.893 643.702 805.484 686.586 821.545 C 714.168 831.974 745.971 835.096 775.249 832.558 C 824.184 828.512 869.239 804.316 899.638 765.755 C 909.964 752.849 920.362 735.388 929.324 721.124 L 968.079 658.957 C 999.459 608.104 1032.2 558.104 1066.27 509.011 C 1081.34 487.673 1096.63 466.005 1116.97 449.248 C 1125.63 442.112 1141.53 428.745 1151.88 424.444 L 1152.84 424.252 C 1163.18 422.103 1166.88 417.242 1176.17 413.631 C 1181.18 411.684 1185.58 427.78 1186.9 429.158 C 1190.86 433.307 1199.36 435.51 1203.25 440.248 C 1208.16 454.723 1213.41 471.378 1218.14 486.015 C 1218.69 487.73 1215.07 494.599 1215.45 496.436 C 1216.17 499.858 1218.69 498.811 1218.23 502.583 C 1210.5 507.996 1204.91 510.2 1197.08 516.349 C 1197 516.97 1196.81 517.852 1196.93 518.389 z"/>
<path transform="translate(0,0)" fill="rgb(254,254,254)" d="M 1643.2 399.525 C 1643.77 399.504 1644.35 399.486 1644.92 399.472 C 1676.41 398.78 1708.67 399.499 1740.22 399.22 C 1812.93 398.06 1884.33 398.57 1940.42 451.924 C 2008.74 516.911 2014.89 647.126 1947.49 714.886 C 1906.74 755.857 1857.91 764.933 1802.24 765.573 C 1800.8 765.233 1795.51 765.441 1793.87 765.429 C 1772.21 765.266 1750.43 766.094 1728.79 765.402 L 1728.63 933.473 C 1698.23 934.877 1656.46 933.637 1624.92 933.637 C 1623.65 849.86 1624.65 763.485 1624.72 679.549 C 1624.79 586.682 1623.82 492.492 1624.82 399.729 L 1643.2 399.525 z M 1728.37 667.521 C 1752.75 667.626 1777.16 667.683 1801.54 667.555 C 1828.79 667.411 1847.31 665.226 1869.01 647.348 C 1902.88 612.016 1899.85 548.264 1864.91 514.963 C 1830.39 482.055 1772.84 491.941 1728.7 490.565 L 1728.69 607.19 C 1728.69 623.73 1729.57 651.638 1728.37 667.521 z"/>
<path transform="translate(0,0)" fill="rgb(101,104,254)" d="M 1151.88 424.444 C 1161.53 417.093 1176.65 409.805 1187.69 404.864 C 1236.47 383.041 1288.23 376.696 1341.13 383.856 C 1417.24 393.527 1486.15 433.707 1532.05 495.177 C 1576.71 553.956 1594.01 628.717 1583.98 701.485 C 1574.09 774.587 1535.34 840.684 1476.38 885.025 C 1414.71 931.475 1338.62 947.259 1262.72 936.718 C 1197.65 927.681 1143.18 900.054 1095.09 855.523 C 1087.88 860.472 1071.67 872.153 1064.32 874.502 L 1063.4 873.973 C 1061.31 832.505 1061 786.26 1059.89 744.396 C 1090.48 744.663 1122.08 746.134 1152.73 746.783 C 1161.34 746.965 1193.7 747.316 1200.15 748.45 C 1197.09 756.581 1179.73 775.038 1172.87 781.438 C 1212.58 819.06 1256.65 833.567 1311.09 832.094 C 1357.12 831.274 1400.86 811.886 1432.37 778.334 C 1463.3 745.662 1479.91 702.002 1478.53 657.035 C 1477.05 607.986 1457.66 565.602 1422 532.135 C 1388.68 500.681 1344.18 483.818 1298.38 485.284 C 1266.49 486.318 1238.12 492.991 1210.93 509.737 C 1208.37 511.309 1198.89 517.588 1196.93 518.389 C 1196.81 517.852 1197 516.97 1197.08 516.349 C 1204.91 510.2 1210.5 507.996 1218.23 502.583 C 1218.69 498.811 1216.17 499.858 1215.45 496.436 C 1215.07 494.599 1218.69 487.73 1218.14 486.015 C 1213.41 471.378 1208.16 454.723 1203.25 440.248 C 1199.36 435.51 1190.86 433.307 1186.9 429.158 C 1185.58 427.78 1181.18 411.684 1176.17 413.631 C 1166.88 417.242 1163.18 422.103 1152.84 424.252 L 1151.88 424.444 z"/>
<path transform="translate(0,0)" fill="rgb(254,254,254)" d="M 274.854 392.414 C 351.755 388.006 413.944 413.721 469.861 465.065 C 467.278 468.624 464.255 472.283 461.344 475.587 C 444.154 495.11 428.384 516.377 411.121 535.755 C 405.262 532.769 394.893 524.992 389.232 520.726 C 340.269 483.822 259.96 478.993 209.104 514.627 C 100.373 590.812 123.751 797.293 264.935 821.234 C 320.88 830.669 361.678 818.133 407.57 786.677 C 411.874 790.312 419.458 798.602 423.682 802.998 L 472.956 853.303 C 434.416 896.646 375.681 921.822 317.231 927.027 C 72.0487 948.861 -49.0083 655.404 97.1851 475.847 C 142.324 420.406 203.727 397.74 274.854 392.414 z"/>
</svg>